name C:\Users\u0101727\Documents\MyRepositories\upper-imu-dc\Results\main_tracking\Case_10\FLX01_linearAccelerations_groundFrame.mot
datacolumns 4
datarows 105
range 2.01000000 3.05000000
endheader 
time	radius_imu_x	radius_imu_y	radius_imu_z	
          2.01000000	          0.03986158	          8.78132969	         -0.94889650	
          2.02000000	          0.15686441	          8.66491626	         -1.16998498	
          2.03000000	          0.22945739	          8.59666902	         -1.27761046	
          2.04000000	          0.25254879	          8.58741297	         -1.25994820	
          2.05000000	          0.23072792	          8.63497984	         -1.13891832	
          2.06000000	          0.17774433	          8.72359115	         -0.96270837	
          2.07000000	          0.11146764	          8.82953000	         -0.78559203	
          2.08000000	          0.04588508	          8.93138689	         -0.64529763	
          2.09000000	         -0.01645840	          9.01958748	         -0.54887890	
          2.10000000	         -0.08511760	          9.09809934	         -0.47612335	
          2.11000000	         -0.17078904	          9.17511453	         -0.40169862	
          2.12000000	         -0.27001593	          9.25011824	         -0.32021172	
          2.13000000	         -0.36007311	          9.30971488	         -0.25323833	
          2.14000000	         -0.40818936	          9.33541729	         -0.23590270	
          2.15000000	         -0.38736830	          9.31619917	         -0.29609483	
          2.16000000	         -0.29068337	          9.25747567	         -0.43681396	
          2.17000000	         -0.13891157	          9.18212393	         -0.62660872	
          2.18000000	          0.02342171	          9.12252690	         -0.80469445	
          2.19000000	          0.14479870	          9.10702970	         -0.90456886	
          2.20000000	          0.18661437	          9.14930048	         -0.88393669	
          2.21000000	          0.13301431	          9.24693202	         -0.73972037	
          2.22000000	         -0.01142659	          9.38712945	         -0.50159493	
          2.23000000	         -0.22857808	          9.55310185	         -0.21449010	
          2.24000000	         -0.49275499	          9.72779564	          0.07800349	
          2.25000000	         -0.77512965	          9.89575519	          0.34382771	
          2.26000000	         -1.04728830	         10.04360321	          0.56560718	
          2.27000000	         -1.28424893	         10.15984982	          0.73889309	
          2.28000000	         -1.46640330	         10.23458377	          0.86799253	
          2.29000000	         -1.57994256	         10.25949247	          0.96112583	
          2.30000000	         -1.61562826	         10.22791716	          1.02543220	
          2.31000000	         -1.56662246	         10.13458143	          1.06230531	
          2.32000000	         -1.42702104	          9.97560040	          1.06448264	
          2.33000000	         -1.19257662	          9.74990916	          1.01664984	
          2.34000000	         -0.86417430	          9.46257343	          0.90083162	
          2.35000000	         -0.45337212	          9.12889922	          0.70641824	
          2.36000000	          0.01221745	          8.77671753	          0.44211405	
          2.37000000	          0.48703295	          8.44412549	          0.14420869	
          2.38000000	          0.91355539	          8.17155855	         -0.12714549	
          2.39000000	          1.23813499	          7.99045539	         -0.30885015	
          2.40000000	          1.42833995	          7.91496479	         -0.36277673	
          2.41000000	          1.47922804	          7.94170165	         -0.29027408	
          2.42000000	          1.40788511	          8.05516084	         -0.12613276	
          2.43000000	          1.24486327	          8.23334409	          0.07820825	
          2.44000000	          1.02683275	          8.45163316	          0.27153070	
          2.45000000	          0.78981210	          8.68565568	          0.41477340	
          2.46000000	          0.56326902	          8.91358057	          0.48621491	
          2.47000000	          0.36694280	          9.11753278	          0.48038199	
          2.48000000	          0.21085205	          9.28432726	          0.40359875	
          2.49000000	          0.09708926	          9.40643171	          0.26963437	
          2.50000000	          0.02204670	          9.48328181	          0.09685723	
          2.51000000	         -0.02142299	          9.52157998	         -0.09387772	
          2.52000000	         -0.04216967	          9.53329483	         -0.28160992	
          2.53000000	         -0.04928212	          9.53185871	         -0.44791965	
          2.54000000	         -0.05071839	          9.52839825	         -0.57916171	
          2.55000000	         -0.05194593	          9.52961246	         -0.66766749	
          2.56000000	         -0.05495100	          9.53787357	         -0.71166306	
          2.57000000	         -0.05812032	          9.55296501	         -0.71409642	
          2.58000000	         -0.05732134	          9.57396002	         -0.68113405	
          2.59000000	         -0.04803904	          9.59979224	         -0.62110750	
          2.60000000	         -0.02795098	          9.62835535	         -0.54387903	
          2.61000000	          0.00122411	          9.65536128	         -0.45999361	
          2.62000000	          0.03390923	          9.67437835	         -0.37933558	
          2.63000000	          0.06295722	          9.67842634	         -0.30968576	
          2.64000000	          0.08259972	          9.66232008	         -0.25571912	
          2.65000000	          0.09048741	          9.62463532	         -0.21872943	
          2.66000000	          0.08831367	          9.56859639	         -0.19703541	
          2.67000000	          0.08114832	          9.50173787	         -0.18671167	
          2.68000000	          0.07541428	          9.43456776	         -0.18224289	
          2.69000000	          0.07586478	          9.37856633	         -0.17709291	
          2.70000000	          0.08313206	          9.34380934	         -0.16456995	
          2.71000000	          0.09346717	          9.33654384	         -0.13919993	
          2.72000000	          0.10077169	          9.35729349	         -0.09828469	
          2.73000000	          0.09953523	          9.40037308	         -0.04290951	
          2.74000000	          0.08693730	          9.45548430	          0.02229003	
          2.75000000	          0.06332234	          9.51105373	          0.09063492	
          2.76000000	          0.03159878	          9.55785776	          0.15542835	
          2.77000000	         -0.00350813	          9.59115455	          0.21143892	
          2.78000000	         -0.03609961	          9.61031240	          0.25517569	
          2.79000000	         -0.06005804	          9.61652125	          0.28424780	
          2.80000000	         -0.07050202	          9.61053871	          0.29681132	
          2.81000000	         -0.06526918	          9.59222739	          0.29187504	
          2.82000000	         -0.04567545	          9.56198875	          0.27036838	
          2.83000000	         -0.01593059	          9.52253399	          0.23603152	
          2.84000000	          0.01881309	          9.47909796	          0.19508478	
          2.85000000	          0.05490656	          9.43760087	          0.15456410	
          2.86000000	          0.09175376	          9.40215690	          0.12034791	
          2.87000000	          0.13144837	          9.37389146	          0.09614003	
          2.88000000	          0.17679720	          9.35168911	          0.08374959	
          2.89000000	          0.22930199	          9.33382160	          0.08388641	
          2.90000000	          0.28847204	          9.31913339	          0.09659302	
          2.91000000	          0.35259176	          9.30738179	          0.12121374	
          2.92000000	          0.42012052	          9.29917243	          0.15636405	
          2.93000000	          0.49068416	          9.29599734	          0.20025160	
          2.94000000	          0.56511867	          9.30036159	          0.25122952	
          2.95000000	          0.64474017	          9.31529010	          0.30800700	
          2.96000000	          0.73048869	          9.34320493	          0.36924422	
          2.97000000	          0.82205562	          9.38416214	          0.43266791	
          2.98000000	          0.91711506	          9.43462330	          0.49440666	
          2.99000000	          1.01109381	          9.48775453	          0.54921039	
          3.00000000	          1.09791212	          9.53537387	          0.59154517	
          3.01000000	          1.17146807	          9.57073262	          0.61709167	
          3.02000000	          1.22697922	          9.59081717	          0.62403232	
          3.03000000	          1.26142097	          9.59715015	          0.61357661	
          3.04000000	          1.27292601	          9.59480554	          0.58947354	
          3.05000000	          1.25963595	          9.59008384	          0.55678401	
